<svg xmlns="http://www.w3.org/2000/svg" xmlns:svg="http://www.w3.org/2000/svg" xmlns:xlink="http://www.w3.org/1999/xlink" id="svg11300" width="128" height="128" display="inline" enable-background="new" version="1.0" viewBox="0 0 128 128"><title id="title4162">Adwaita Icon Template</title><defs id="defs3"><linearGradient id="linearGradient1138" x1="88.596" x2="536.596" y1="-449.394" y2="-449.394" gradientTransform="matrix(0.23214285,0,0,0.19736843,-8.56688,204.69618)" gradientUnits="userSpaceOnUse" xlink:href="#linearGradient1153"/><linearGradient id="linearGradient1153"><stop id="stop1141" offset="0" stop-color="#000" stop-opacity="1"/><stop id="stop1143" offset=".038" stop-color="#c0bfbc" stop-opacity="1"/><stop id="stop1145" offset=".077" stop-color="#000" stop-opacity="1"/><stop id="stop1147" offset=".923" stop-color="#000" stop-opacity="1"/><stop id="stop1149" offset=".962" stop-color="#c0bfbc" stop-opacity="1"/><stop id="stop1151" offset="1" stop-color="#000" stop-opacity="1"/></linearGradient><linearGradient id="linearGradient1064" x1="88.596" x2="536.596" y1="-449.394" y2="-449.394" gradientTransform="matrix(0.23214285,0,0,0.19736843,-8.56688,204.69618)" gradientUnits="userSpaceOnUse" xlink:href="#linearGradient1073"/><linearGradient id="linearGradient1073"><stop id="stop1060" offset="0" stop-color="#77767b" stop-opacity="1"/><stop id="stop1062" offset=".038" stop-color="#c0bfbc" stop-opacity="1"/><stop id="stop1064" offset=".077" stop-color="#9a9996" stop-opacity="1"/><stop id="stop1067" offset=".923" stop-color="#9a9996" stop-opacity="1"/><stop id="stop1069" offset=".962" stop-color="#c0bfbc" stop-opacity="1"/><stop id="stop1071" offset="1" stop-color="#77767b" stop-opacity="1"/></linearGradient></defs><metadata id="metadata4"/><g id="g924"><rect id="rect1048" width="104" height="60" x="12" y="56" fill="url(#linearGradient1064)" fill-opacity="1" stroke="none" stroke-dasharray="none" stroke-dashoffset="0" stroke-linecap="butt" stroke-linejoin="miter" stroke-miterlimit="4" stroke-opacity="1" stroke-width=".25" marker-end="none" marker-mid="none" marker-start="none" display="inline" enable-background="new" opacity="1" paint-order="normal" rx="8" ry="8" vector-effect="none" style="marker:none"/><rect id="rect929-36-9" width="104" height="100" x="12" y="12" fill="#deddda" fill-opacity="1" stroke="none" stroke-dasharray="none" stroke-dashoffset="0" stroke-linecap="butt" stroke-linejoin="miter" stroke-miterlimit="4" stroke-opacity="1" stroke-width=".25" marker-end="none" marker-mid="none" marker-start="none" display="inline" enable-background="new" opacity="1" paint-order="normal" rx="8" ry="8" vector-effect="none" style="marker:none"/><g id="g1044" stroke-width=".731" display="inline" transform="matrix(1.3684211,0,0,1.3684211,-23.57895,-256.21054)"><path id="path975" fill="#33d17a" stroke="none" stroke-linecap="butt" stroke-linejoin="miter" stroke-opacity="1" stroke-width="1" d="m 28,28 c -2.216,0 -4.21611,0.891891 -5.662109,2.337891 L 72,80 121.66211,30.337891 C 120.21611,28.891891 118.216,28 116,28 Z" transform="matrix(0.73076921,0,0,0.73076921,11.384617,175.53847)"/><path id="path977" fill="#3584e4" fill-opacity="1" stroke="none" stroke-linecap="butt" stroke-linejoin="miter" stroke-opacity="1" stroke-width="1" d="M 22.337891,30.337891 C 20.891891,31.783891 20,33.784 20,36 v 88 c 0,2.216 0.891891,4.21611 2.337891,5.66211 L 72,80 Z" transform="matrix(0.73076921,0,0,0.73076921,11.384617,175.53847)"/><path id="path979" fill="#5e5c64" stroke="none" stroke-linecap="butt" stroke-linejoin="miter" stroke-opacity="1" stroke-width="1" d="M 121.66211,30.337891 98,54 124,80 V 36 c 0,-2.216 -0.89189,-4.216109 -2.33789,-5.662109 z" transform="matrix(0.73076921,0,0,0.73076921,11.384617,175.53847)"/><rect id="rect981" width="26.87" height="26.87" x="-120.208" y="210.718" fill="#f6d32d" fill-opacity="1" stroke="none" stroke-dasharray="none" stroke-dashoffset="0" stroke-linecap="butt" stroke-linejoin="miter" stroke-miterlimit="4" stroke-opacity="1" stroke-width=".183" marker-end="none" marker-mid="none" marker-start="none" display="inline" enable-background="new" opacity="1" paint-order="normal" transform="rotate(-45)" vector-effect="none" style="marker:none"/><path id="path983" fill="#865e3c" stroke="none" stroke-linecap="butt" stroke-linejoin="miter" stroke-opacity="1" stroke-width="1" d="m 124,80 -52,52 h 44 c 4.432,0 8,-3.568 8,-8 z" transform="matrix(0.73076921,0,0,0.73076921,11.384617,175.53847)"/><path id="path985" fill="#ff7800" fill-opacity="1" stroke="none" stroke-linecap="butt" stroke-linejoin="miter" stroke-opacity="1" stroke-width=".731" d="M 82.99998,253 H 45 l 19,-19 z"/><path id="path1013" fill="#ed333b" fill-opacity="1" stroke="none" stroke-linecap="butt" stroke-linejoin="miter" stroke-opacity="1" stroke-width="1" d="M 46,106 22.337891,129.66211 C 23.78389,131.10811 25.784,132 28,132 h 44 l 26,-26 z" transform="matrix(0.73076921,0,0,0.73076921,11.384617,175.53847)"/></g><path id="rect1134" fill="url(#linearGradient1138)" fill-opacity="1" stroke="none" stroke-dasharray="none" stroke-dashoffset="0" stroke-linecap="butt" stroke-linejoin="miter" stroke-miterlimit="4" stroke-opacity="1" stroke-width=".25" marker-end="none" marker-mid="none" marker-start="none" d="m 12,104 v 4 c 0,4.432 3.568001,8 8,8 h 88 c 4.432,0 8,-3.568 8,-8 v -4 c 0,4.432 -3.568,8 -8,8 H 20 c -4.431999,0 -8,-3.568 -8,-8 z" display="inline" enable-background="new" opacity=".393" paint-order="normal" vector-effect="none" style="marker:none"/></g></svg>